<svg width="21" height="21" viewBox="0 0 21 21" fill="none" xmlns="http://www.w3.org/2000/svg">
<path d="M8 17.3749H4.25C4.08424 17.3749 3.92527 17.3091 3.80806 17.1919C3.69085 17.0747 3.625 16.9157 3.625 16.7499V13.2577C3.62472 13.1766 3.64044 13.0962 3.67128 13.0211C3.70211 12.946 3.74745 12.8778 3.80469 12.8202L13.1797 3.44524C13.2378 3.38619 13.3072 3.33929 13.3836 3.30728C13.4601 3.27527 13.5421 3.25879 13.625 3.25879C13.7079 3.25879 13.7899 3.27527 13.8664 3.30728C13.9428 3.33929 14.0122 3.38619 14.0703 3.44524L17.5547 6.92962C17.6137 6.98777 17.6606 7.0571 17.6927 7.13355C17.7247 7.21 17.7411 7.29205 17.7411 7.37493C17.7411 7.45781 17.7247 7.53987 17.6927 7.61632C17.6606 7.69277 17.6137 7.76209 17.5547 7.82024L8 17.3749Z" stroke="#F5F5F5" stroke-width="1.65178" stroke-linecap="round" stroke-linejoin="round"/>
<path d="M11.125 5.5L15.5 9.875" stroke="#F5F5F5" stroke-width="1.65178" stroke-linecap="round" stroke-linejoin="round"/>
<path d="M17.375 17.375H8" stroke="#F5F5F5" stroke-width="1.65178" stroke-linecap="round" stroke-linejoin="round"/>
</svg>
