<?xml version="1.0" standalone="no"?>
<!DOCTYPE svg PUBLIC "-//W3C//DTD SVG 20010904//EN"
 "http://www.w3.org/TR/2001/REC-SVG-20010904/DTD/svg10.dtd">
<svg version="1.0" xmlns="http://www.w3.org/2000/svg"
 width="185.000000pt" height="185.000000pt" viewBox="0 0 185.000000 185.000000"
 preserveAspectRatio="xMidYMid meet">

<g transform="translate(0.000000,185.000000) scale(0.100000,-0.100000)"
fill="#000000" stroke="none">
<path d="M1070 1835 c7 -8 21 -15 31 -15 13 0 19 -7 19 -22 0 -19 2 -20 10 -8
5 8 10 25 10 38 0 19 -5 22 -41 22 -36 0 -40 -2 -29 -15z"/>
<path d="M1483 1823 c1 -15 6 -31 12 -35 5 -4 7 -8 5 -10 -67 -49 -87 -68
-110 -105 -33 -51 -45 -107 -32 -143 5 -14 6 -37 1 -52 -5 -18 -1 -48 12 -90
28 -94 26 -106 -18 -113 -105 -18 -169 -69 -179 -144 -3 -23 -12 -55 -20 -69
-8 -15 -14 -40 -14 -56 0 -25 -2 -27 -17 -15 -15 12 -16 12 -8 -1 5 -8 10 -39
12 -68 1 -29 7 -62 13 -72 8 -15 8 -20 -1 -20 -7 0 -5 -8 6 -20 18 -20 18 -21
-1 -14 -17 7 -18 6 -4 -10 16 -20 11 -25 48 64 10 24 11 23 11 -12 1 -21 -4
-38 -9 -38 -7 0 -7 -6 0 -20 6 -11 16 -20 22 -20 7 0 6 5 -2 15 -7 9 -10 19
-6 22 4 4 11 1 16 -7 11 -17 43 -23 37 -6 -3 6 4 13 14 13 16 2 17 -2 9 -18
-8 -14 -7 -19 2 -19 8 0 15 12 16 27 1 15 9 38 18 51 13 20 14 26 3 33 -17 11
-18 11 -55 0 -41 -12 -68 3 -54 29 11 20 4 50 -12 50 -6 0 -8 9 -5 20 3 11 1
18 -3 15 -15 -9 -22 15 -10 30 7 8 14 43 15 77 3 50 8 66 25 80 26 21 50 23
50 4 0 -7 6 -19 14 -25 11 -9 12 -7 9 12 -4 20 1 25 35 35 47 14 52 15 52 3 0
-5 -10 -11 -21 -14 -16 -4 -20 -11 -16 -26 3 -11 -1 -25 -9 -32 -22 -18 -17
-34 21 -73 40 -41 38 -41 70 -20 18 12 28 13 44 5 19 -11 19 -13 4 -55 -9 -25
-20 -43 -23 -41 -4 2 -7 -15 -8 -38 -2 -39 1 -44 44 -77 25 -19 55 -43 66 -54
21 -19 20 -19 -28 -35 -27 -9 -51 -13 -54 -9 -3 4 -23 3 -45 -2 -21 -5 -51 -6
-66 -3 -16 3 -30 0 -34 -8 -7 -10 8 -11 68 -6 79 7 107 -5 40 -17 -68 -11
-233 -7 -233 6 0 6 -2 9 -5 6 -3 -3 -3 -12 0 -20 5 -13 26 -15 133 -11 107 3
130 7 147 23 11 11 40 26 64 35 38 13 44 13 58 -1 20 -19 33 -7 42 37 6 29 11
34 40 36 44 4 58 17 73 67 14 50 14 248 -1 273 -8 13 -10 -18 -9 -122 1 -93
-2 -150 -10 -169 -7 -16 -15 -26 -18 -23 -3 3 -1 14 5 25 16 30 13 221 -4 297
-11 44 -15 104 -13 183 3 107 4 114 15 82 l13 -35 -6 35 c-4 19 -6 46 -5 60 2
38 -20 95 -30 79 -6 -10 -10 -7 -18 11 l-10 25 0 -29 c-1 -16 -4 -27 -7 -23
-4 3 -3 28 1 54 l7 48 14 -28 c18 -34 28 -35 22 -2 -4 19 -2 23 7 15 15 -13
30 -69 47 -175 7 -44 14 -69 16 -56 6 36 -16 178 -31 209 -18 36 -29 92 -18
92 5 0 21 -24 35 -52 20 -42 25 -48 25 -28 1 39 -33 103 -68 133 -30 25 -40
27 -116 27 l-83 0 2 32 c1 23 -4 33 -16 36 -13 3 -17 -3 -15 -25z m87 -93 c0
-5 -5 -10 -11 -10 -5 0 -7 5 -4 10 3 6 8 10 11 10 2 0 4 -4 4 -10z m-7 -89
c20 -27 37 -55 37 -63 0 -7 9 -26 20 -43 11 -16 17 -37 15 -46 -3 -9 -1 -27 4
-40 14 -38 -29 -126 -66 -135 -15 -4 -37 -13 -48 -20 -23 -15 -95 -21 -113
-10 -18 11 -14 36 6 36 9 0 28 9 42 20 18 13 28 16 37 8 10 -8 13 -5 13 10 0
23 -46 79 -57 69 -3 -4 2 -16 12 -27 18 -20 17 -20 -8 -20 -28 0 -45 15 -25
23 7 3 -2 6 -19 6 -39 1 -41 12 -11 67 l22 41 -21 27 c-18 23 -20 31 -10 57
19 50 63 80 127 88 3 0 22 -22 43 -48z m-181 -173 c-9 -9 -12 -7 -12 12 0 19
3 21 12 12 9 -9 9 -15 0 -24z m88 -108 c0 -5 -11 -10 -24 -10 -14 0 -28 5 -31
10 -4 6 7 10 24 10 17 0 31 -4 31 -10z m124 -128 c-2 -20 -6 -50 -10 -67 -5
-25 -4 -28 7 -17 7 6 19 12 26 12 17 0 14 -104 -3 -138 l-12 -23 -20 28 c-12
18 -21 50 -24 91 -3 42 -11 71 -26 91 -20 27 -20 30 -4 44 43 37 69 28 66 -21z
m-169 -32 c-3 -5 -13 -10 -21 -10 -8 0 -14 5 -14 10 0 6 9 10 21 10 11 0 17
-4 14 -10z m272 -202 c-2 -18 -4 -6 -4 27 0 33 2 48 4 33 2 -15 2 -42 0 -60z
m-44 -41 c4 3 7 3 7 0 0 -3 -8 -11 -19 -16 -16 -9 -20 -6 -24 15 -4 23 -3 23
13 9 9 -8 20 -12 23 -8z m31 -54 c-7 -51 -25 -99 -20 -53 5 44 18 100 23 100
2 0 1 -21 -3 -47z"/>
<path d="M1430 1531 c0 -5 7 -16 15 -25 8 -8 15 -19 15 -25 0 -16 37 -23 60
-11 26 14 26 27 0 35 -11 4 -18 10 -15 15 3 4 -5 10 -18 14 -33 9 -57 7 -57
-3z"/>
<path d="M279 1606 c-51 -14 -80 -33 -129 -89 -19 -23 -39 -36 -47 -33 -18 7
-47 -20 -37 -35 4 -8 3 -9 -4 -5 -7 4 -12 1 -12 -7 0 -8 -11 -22 -25 -31 -23
-15 -25 -22 -25 -101 0 -88 9 -107 37 -79 16 15 18 15 36 -7 41 -52 57 -69 67
-69 13 0 13 13 -2 28 -21 21 -1 24 38 5 29 -14 46 -32 70 -78 32 -60 47 -74
59 -56 8 14 72 14 80 1 4 -6 12 -7 18 -4 7 4 1 -6 -13 -21 l-25 -29 27 17 c15
9 34 17 41 17 24 0 40 28 40 70 0 31 3 40 17 40 10 0 20 7 24 15 3 8 15 14 27
12 12 -1 23 3 26 8 4 12 -33 12 -59 1 -10 -5 -26 -5 -35 -2 -10 4 -14 4 -11 0
8 -7 -26 -37 -54 -47 -10 -4 -18 1 -21 13 -6 25 3 37 36 45 15 4 38 20 51 35
16 20 27 25 37 19 8 -5 17 -9 21 -9 9 0 39 62 33 68 -8 8 -36 -8 -31 -17 6 -9
-23 -25 -31 -18 -6 7 28 141 39 154 6 7 19 13 29 13 25 0 24 24 -1 65 -14 22
-45 46 -98 72 -92 48 -132 56 -193 39z"/>
<path d="M545 1320 c-3 -5 -1 -10 4 -10 6 0 11 5 11 10 0 6 -2 10 -4 10 -3 0
-8 -4 -11 -10z"/>
<path d="M863 1215 c-6 -7 -15 -45 -19 -84 -3 -39 -11 -71 -16 -71 -30 0 -28
-90 3 -168 14 -33 14 -33 -41 -83 -30 -27 -74 -61 -97 -75 -37 -23 -40 -27
-28 -42 8 -9 21 -26 30 -37 14 -18 14 -17 4 13 -11 32 -10 34 52 92 35 33 81
67 101 77 34 16 58 43 39 43 -4 0 -7 77 -6 170 1 94 -1 172 -4 174 -3 2 -11
-2 -18 -9z m4 -67 c-3 -7 -5 -2 -5 12 0 14 2 19 5 13 2 -7 2 -19 0 -25z m1
-110 c-1 -73 -2 -78 -10 -43 -5 22 -7 56 -4 75 3 19 5 38 6 43 0 4 2 7 5 7 2
0 4 -37 3 -82z"/>
<path d="M904 1207 c3 -10 6 -31 7 -45 0 -27 0 -27 10 -4 7 18 5 29 -7 45 -13
17 -15 18 -10 4z"/>
<path d="M1311 1160 c14 -31 19 -36 19 -24 0 6 -7 19 -16 30 -14 18 -14 18 -3
-6z"/>
<path d="M940 1131 c0 -12 5 -21 10 -21 6 0 10 6 10 14 0 8 -4 18 -10 21 -5 3
-10 -3 -10 -14z"/>
<path d="M911 1090 l1 -45 8 35 c5 20 5 39 -1 45 -5 5 -9 -8 -8 -35z"/>
<path d="M940 1076 c0 -9 5 -16 10 -16 6 0 10 4 10 9 0 6 -4 13 -10 16 -5 3
-10 -1 -10 -9z"/>
<path d="M1210 1075 c0 -4 7 -19 15 -36 15 -28 17 -29 33 -13 11 12 13 19 5
21 -7 3 -9 11 -6 19 4 10 -2 14 -21 14 -14 0 -26 -2 -26 -5z"/>
<path d="M1224 955 c-1 -16 5 -26 17 -30 10 -4 19 -11 19 -17 0 -6 3 -9 6 -5
7 6 -25 77 -35 77 -3 0 -7 -11 -7 -25z"/>
<path d="M990 956 c0 -19 19 -31 31 -19 5 5 0 14 -11 21 -17 10 -20 10 -20 -2z"/>
<path d="M973 843 c-27 -18 -29 -29 -7 -37 20 -8 54 20 53 43 0 10 -3 8 -9 -6
-6 -15 -17 -23 -32 -22 -16 1 -18 3 -6 6 9 2 19 11 22 19 6 17 7 17 -21 -3z"/>
<path d="M1010 805 c-9 -11 -23 -14 -49 -9 -25 4 -33 3 -26 -4 20 -21 66 -18
82 6 17 25 12 30 -7 7z"/>
<path d="M1025 760 c-12 -23 -21 -30 -36 -26 -10 4 -28 9 -40 12 -11 3 -19 8
-17 10 3 2 19 0 36 -5 17 -5 34 -6 37 -1 2 4 -14 12 -37 18 -55 14 -62 2 -34
-52 15 -29 33 -47 64 -61 23 -11 42 -23 42 -26 0 -4 -13 -10 -30 -14 -42 -9
-37 -25 8 -26 32 -1 34 -2 12 -8 -25 -7 -24 -8 8 -15 17 -4 32 -12 32 -17 0
-16 15 -10 47 20 22 20 35 25 42 18 8 -8 11 -7 11 1 0 7 -7 15 -15 18 -8 4
-15 13 -15 22 0 13 3 12 20 -3 11 -10 20 -13 20 -8 0 6 -7 16 -15 23 -13 10
-19 10 -35 -5 -13 -11 -20 -14 -20 -6 0 7 -4 10 -9 7 -4 -3 -6 7 -4 22 3 24 3
25 -6 6 -13 -30 -28 -37 -35 -18 -4 10 -2 13 6 8 7 -5 8 -3 4 5 -5 7 -14 10
-22 7 -20 -8 -17 8 6 29 11 10 20 22 20 26 0 9 -26 6 -36 -4 -10 -9 -54 -8
-79 3 -14 6 -8 7 20 4 37 -5 42 -3 58 26 11 17 17 34 14 37 -3 3 -13 -9 -22
-27z m12 -64 c-10 -8 -29 -11 -45 -7 l-27 6 30 3 c17 2 34 8 39 13 5 5 12 6
15 3 3 -3 -2 -11 -12 -18z"/>
<path d="M1511 771 c-7 -5 -23 -7 -35 -4 -19 4 -19 3 -4 -7 13 -8 24 -7 45 4
16 8 24 15 18 15 -5 1 -16 -3 -24 -8z"/>
<path d="M42 754 c10 -10 20 -16 22 -13 3 3 -5 11 -17 18 -21 13 -21 12 -5 -5z"/>
<path d="M1119 768 c0 -2 -1 -31 -2 -65 -2 -56 0 -60 14 -47 20 18 28 18 51
-3 10 -9 18 -11 18 -6 0 6 -7 16 -15 23 -11 9 -14 23 -10 49 l6 36 -21 -37
c-11 -21 -23 -38 -25 -38 -3 0 -4 20 -2 45 2 25 0 45 -5 45 -4 0 -8 -1 -9 -2z"/>
<path d="M1418 753 c6 -2 18 -2 25 0 6 3 1 5 -13 5 -14 0 -19 -2 -12 -5z"/>
<path d="M1228 743 c7 -3 16 -2 19 1 4 3 -2 6 -13 5 -11 0 -14 -3 -6 -6z"/>
<path d="M1217 718 c-7 -4 9 -8 36 -8 26 0 47 2 47 4 0 8 -71 12 -83 4z"/>
<path d="M1514 701 c-23 -11 -43 -24 -45 -30 -3 -7 -50 -12 -127 -15 -67 -2
-126 -6 -129 -10 -4 -3 53 -5 125 -4 99 2 133 6 137 16 2 7 28 24 57 37 29 13
46 24 38 24 -8 0 -34 -8 -56 -18z"/>
<path d="M1546 676 c-21 -7 -46 -22 -56 -33 -9 -12 -23 -21 -31 -21 -8 1 -27
0 -44 -2 -25 -3 -23 -4 14 -9 39 -5 48 -3 71 21 15 14 43 30 63 33 21 4 37 11
37 16 0 11 -4 10 -54 -5z"/>
<path d="M160 666 c0 -2 8 -10 18 -17 15 -13 16 -12 3 4 -13 16 -21 21 -21 13z"/>
<path d="M798 625 c-52 -50 -76 -59 -57 -22 11 19 10 20 -3 10 -8 -7 -18 -10
-22 -6 -4 4 -4 0 -1 -10 4 -9 2 -30 -3 -47 l-11 -30 119 0 c65 0 125 -3 133
-6 10 -4 16 4 19 25 l4 30 -63 7 c-36 3 -82 4 -104 1 -21 -3 -39 -1 -39 4 0 5
4 9 8 9 5 0 23 18 41 40 17 22 31 40 29 40 -2 0 -24 -21 -50 -45z"/>
<path d="M1547 638 c-23 -6 -42 -19 -48 -32 -8 -18 -17 -21 -54 -18 -25 2 -45
0 -45 -5 0 -5 23 -10 50 -11 28 -1 53 -3 58 -4 4 -1 21 4 37 11 17 7 50 16 75
21 l45 8 -40 0 c-22 1 -57 -5 -77 -12 -32 -11 -38 -11 -38 0 0 15 93 46 115
37 8 -3 15 0 15 6 0 13 -41 13 -93 -1z"/>
<path d="M273 515 c-2 -54 0 -67 14 -72 9 -4 19 -1 21 5 2 8 31 12 83 12 95 0
97 -15 4 -25 -51 -5 -65 -10 -65 -23 -1 -36 -50 -72 -50 -37 0 8 5 15 12 15 6
0 9 2 6 5 -3 3 -13 3 -22 -1 -13 -5 -16 -21 -16 -88 0 -50 -10 -123 -25 -191
-14 -60 -25 -111 -25 -112 0 -2 98 -3 218 -3 l218 0 42 63 c121 182 162 239
162 222 0 -38 20 1 22 42 l1 40 75 7 c81 6 112 -6 112 -45 0 -22 61 -34 168
-33 63 1 71 -1 59 -13 -8 -8 -31 -16 -52 -18 -20 -2 -42 -8 -48 -14 -7 -7 5
-9 44 -4 49 6 53 5 41 -10 -7 -8 -26 -15 -41 -15 -15 1 -35 -3 -44 -8 -13 -8
-7 -10 24 -11 46 -2 60 -10 40 -22 -10 -6 -9 -10 4 -15 9 -3 26 -6 36 -6 11 0
17 -4 14 -10 -3 -5 1 -20 10 -33 l15 -24 34 31 c18 17 29 34 23 37 -5 4 0 10
12 14 12 3 19 11 15 16 -3 6 3 13 15 16 12 3 21 9 21 13 0 5 9 11 19 15 16 5
18 11 11 35 -5 16 -22 49 -39 74 -17 24 -31 48 -31 52 0 11 -124 123 -130 117
-2 -2 2 -8 10 -13 11 -7 8 -10 -15 -11 -62 -1 -86 -8 -116 -33 -17 -14 -25
-26 -19 -26 6 0 8 -5 4 -11 -4 -8 -9 -7 -15 2 -4 7 -5 17 -3 21 9 14 -47 78
-68 78 -29 0 -56 -18 -72 -48 l-15 -27 -1 28 c0 26 -14 38 -22 18 -1 -5 -61
-11 -133 -12 -124 -3 -164 -10 -211 -36 -17 -10 -34 -8 -85 7 -40 13 -94 20
-142 20 l-79 0 3 43 c3 41 -5 67 -19 67 -4 0 -8 -29 -9 -65z m1055 -45 c1 0 2
-4 2 -10 0 -5 -11 -10 -24 -10 -14 0 -28 -5 -32 -12 -5 -8 5 -9 39 -5 64 9 68
-8 7 -34 -66 -29 -58 -34 13 -10 47 17 57 17 57 5 0 -7 -8 -14 -18 -14 -10 0
-27 -7 -38 -16 -19 -16 -15 -16 29 1 7 3 26 -18 45 -49 32 -54 41 -86 22 -86
-5 0 -10 6 -10 14 0 8 -9 24 -21 37 l-21 24 16 -27 c21 -37 20 -61 -4 -83 -20
-18 -21 -18 -14 1 4 10 11 25 17 32 6 7 6 12 0 12 -5 0 -19 -14 -32 -31 -29
-38 -38 -32 -16 13 l16 33 -31 -35 c-32 -37 -36 -36 -20 4 6 17 6 26 0 26 -16
0 -11 23 10 50 26 33 25 45 -2 26 -12 -9 -27 -16 -33 -16 -5 0 -3 5 5 10 12 7
12 12 2 22 -9 9 -15 10 -20 1 -4 -6 -16 -13 -27 -15 -16 -2 -20 3 -22 27 -5
57 -6 65 -14 65 -5 0 -6 6 -3 14 3 8 -2 16 -13 19 -15 4 -14 5 5 7 38 4 40 5
48 13 7 7 24 6 82 -3z m-400 -15 c5 -5 12 -22 16 -37 8 -33 -12 -41 -102 -40
-59 1 -93 16 -92 39 0 4 -6 8 -12 8 -7 1 -12 6 -10 13 3 15 -10 16 -25 1 -6
-6 -16 -8 -22 -4 -21 12 -3 20 55 23 32 2 60 5 62 6 7 8 122 0 130 -9z m-275
-50 c1 -5 -6 -11 -15 -13 -11 -2 -18 3 -18 13 0 17 30 18 33 0z m54 -1 c-3 -3
-12 -4 -19 -1 -8 3 -5 6 6 6 11 1 17 -2 13 -5z m737 -89 c39 -76 27 -91 -15
-19 -44 76 -43 74 -26 74 7 0 26 -25 41 -55z m-158 -107 c-18 -26 -22 -17 -5
14 6 11 13 17 16 15 3 -3 -2 -16 -11 -29z"/>
<path d="M1325 270 c-3 -5 -1 -10 4 -10 6 0 11 5 11 10 0 6 -2 10 -4 10 -3 0
-8 -4 -11 -10z"/>
<path d="M1570 565 c-19 -7 -60 -14 -90 -15 -47 -2 -51 -4 -25 -10 17 -4 24
-8 18 -9 -7 0 -13 -6 -13 -12 0 -6 12 -9 28 -8 15 2 32 0 38 -3 9 -6 37 1 113
28 8 2 12 6 9 9 -2 2 -26 -2 -53 -10 -60 -19 -71 -19 -56 -1 15 18 103 38 128
30 15 -5 16 -4 3 5 -20 14 -57 13 -100 -4z"/>
<path d="M1225 510 c-8 -13 15 -13 35 0 12 8 11 10 -7 10 -12 0 -25 -4 -28
-10z"/>
<path d="M1618 503 c6 -2 18 -2 25 0 6 3 1 5 -13 5 -14 0 -19 -2 -12 -5z"/>
<path d="M1520 491 l-45 -6 44 -8 c58 -10 93 -37 116 -86 10 -23 21 -41 26
-41 16 0 -41 96 -65 110 -15 7 -24 20 -22 27 3 7 2 12 -2 11 -4 0 -27 -4 -52
-7z"/>
<path d="M1600 480 c0 -5 4 -10 10 -10 5 0 23 -19 40 -42 34 -47 40 -42 9 8
-22 36 -59 63 -59 44z"/>
<path d="M1667 455 c15 -19 29 -32 32 -30 2 3 -4 14 -14 25 -14 15 -15 20 -4
21 8 0 6 4 -6 9 -35 15 -36 11 -8 -25z"/>
<path d="M5 459 c-10 -15 3 -25 16 -12 7 7 7 13 1 17 -6 3 -14 1 -17 -5z"/>
<path d="M1485 445 c48 -22 66 -41 91 -92 13 -26 24 -40 24 -30 0 27 -26 73
-55 95 -28 22 -32 32 -12 32 40 0 116 -147 95 -183 -5 -9 -29 -25 -53 -36 -25
-11 -45 -22 -45 -26 0 -3 13 1 30 10 16 8 39 15 51 15 12 0 19 3 16 7 -4 3 0
15 10 25 15 17 15 22 -3 75 -10 31 -33 72 -50 90 -27 29 -38 33 -80 33 l-49
-1 30 -14z"/>
<path d="M1735 450 c3 -5 8 -10 11 -10 2 0 4 5 4 10 0 6 -5 10 -11 10 -5 0 -7
-4 -4 -10z"/>
<path d="M1446 431 c-3 -5 5 -8 18 -7 13 0 22 4 19 9 -6 10 -31 9 -37 -2z"/>
<path d="M1420 418 c0 -4 14 -27 30 -51 17 -23 37 -61 45 -82 10 -29 14 -34
15 -17 0 12 -9 39 -19 60 -21 39 -70 102 -71 90z"/>
<path d="M1730 404 c0 -8 5 -12 10 -9 6 4 8 11 5 16 -9 14 -15 11 -15 -7z"/>
<path d="M1501 353 c17 -32 28 -65 26 -75 -3 -10 -1 -16 4 -12 15 9 10 39 -16
88 -13 25 -21 46 -16 46 14 0 40 -35 56 -76 l15 -39 -5 35 c-6 39 -50 90 -76
90 -16 0 -14 -7 12 -57z"/>
<path d="M1728 363 c7 -3 16 -2 19 1 4 3 -2 6 -13 5 -11 0 -14 -3 -6 -6z"/>
<path d="M990 285 c-7 -8 -21 -15 -32 -15 -11 0 -33 -13 -48 -30 -33 -35 -37
-36 -43 -12 -2 9 -2 4 0 -13 2 -16 6 -50 8 -75 3 -25 11 -65 18 -90 12 -40 18
-45 46 -48 l31 -3 2 58 c2 56 6 134 7 161 1 6 8 12 16 12 10 0 14 10 13 35 -1
40 -1 40 -18 20z"/>
<path d="M1795 276 c-6 -8 -32 -17 -59 -20 -33 -3 -57 -13 -70 -27 l-21 -21
25 5 c19 5 29 1 38 -14 7 -11 17 -17 22 -14 6 3 10 2 10 -3 0 -6 8 -8 19 -5
13 3 27 -7 47 -36 32 -45 49 -54 34 -18 -5 12 -11 34 -14 48 -3 15 -17 31 -32
38 l-27 12 23 24 c12 13 21 28 19 34 -3 7 -8 6 -14 -3z"/>
<path d="M1645 250 c-3 -5 -1 -10 4 -10 6 0 11 5 11 10 0 6 -2 10 -4 10 -3 0
-8 -4 -11 -10z"/>
<path d="M1576 205 c-19 -14 -18 -15 17 -15 38 0 49 13 21 24 -19 7 -15 8 -38
-9z"/>
<path d="M1104 183 l-42 -4 -17 -72 c-9 -40 -22 -80 -27 -90 -8 -16 -6 -18 19
-15 26 3 28 6 25 43 -3 54 14 91 54 116 19 11 34 23 34 25 0 2 -1 3 -2 2 -2
-1 -22 -3 -44 -5z"/>
<path d="M1425 174 c-19 -15 -19 -15 10 -8 37 8 57 24 30 24 -11 0 -29 -8 -40
-16z"/>
<path d="M1781 75 c0 -5 11 -23 25 -40 14 -17 21 -21 16 -10 -16 30 -41 61
-41 50z"/>
<path d="M1770 44 c0 -5 7 -19 15 -30 8 -10 15 -14 15 -8 0 5 -7 19 -15 30 -8
10 -15 14 -15 8z"/>
</g>
</svg>
