<?xml version="1.0" standalone="no"?>
<!DOCTYPE svg PUBLIC "-//W3C//DTD SVG 20010904//EN"
 "http://www.w3.org/TR/2001/REC-SVG-20010904/DTD/svg10.dtd">
<svg version="1.0" xmlns="http://www.w3.org/2000/svg"
 width="254.000000pt" height="254.000000pt" viewBox="0 0 254.000000 254.000000"
 preserveAspectRatio="xMidYMid meet">

<g transform="translate(0.000000,254.000000) scale(0.100000,-0.100000)"
fill="#000000" stroke="none">
<path d="M1 1937 c-1 -458 2 -617 11 -647 16 -51 43 -54 52 -5 4 19 13 40 20
47 7 8 18 23 25 36 17 31 88 32 100 0 6 -18 9 -19 14 -5 4 10 17 17 31 17 14
0 29 7 34 16 8 14 15 10 51 -27 23 -24 45 -57 50 -74 10 -35 11 -33 42 80 12
44 34 107 50 141 29 61 29 62 29 257 0 110 -4 206 -10 219 -15 34 -52 89 -110
161 -14 18 -32 46 -40 62 -24 49 -73 129 -86 140 -7 6 -24 33 -39 60 -62 117
-71 125 -145 125 -55 0 -60 -2 -61 -22 -1 -22 -1 -22 -9 2 -4 14 -8 -248 -9
-583z m223 -177 c19 -19 19 -19 -8 -30 -26 -9 -28 -14 -23 -45 3 -19 2 -35 -2
-35 -14 0 -22 -62 -10 -76 6 -8 9 -21 5 -29 -3 -9 2 -27 11 -41 13 -20 14 -30
5 -49 -7 -14 -16 -25 -22 -25 -14 0 -37 40 -44 80 -3 19 -16 44 -27 56 -30 32
-39 162 -15 200 16 24 22 25 64 19 26 -3 56 -15 66 -25z m-168 -81 c-7 -46
-24 -84 -33 -75 -6 6 28 116 35 116 3 0 2 -19 -2 -41z m227 -13 c7 3 3 -2 -7
-10 -11 -9 -14 -16 -8 -16 7 0 12 -4 12 -10 0 -12 -29 -2 -54 19 -17 15 -17
16 10 21 16 3 31 2 32 -2 2 -5 9 -6 15 -2z m7 -63 c0 -3 -7 -15 -17 -25 -18
-20 -43 -24 -43 -7 0 5 4 8 9 4 5 -3 12 4 16 15 6 18 35 29 35 13z m-257 -113
c-3 -14 -7 -28 -7 -32 -1 -3 -5 -10 -10 -15 -5 -5 -6 6 -2 26 3 18 6 50 7 70
l1 36 9 -30 c5 -16 6 -41 2 -55z m217 -30 c0 -5 -5 -10 -11 -10 -5 0 -7 5 -4
10 3 6 8 10 11 10 2 0 4 -4 4 -10z"/>
<path d="M130 1710 c11 -7 12 -10 2 -10 -8 0 -12 -6 -9 -12 7 -22 32 -14 33
10 1 16 -4 22 -20 22 -17 0 -18 -2 -6 -10z"/>
<path d="M2239 2468 c-1 -123 -9 -282 -13 -303 -3 -11 -18 -28 -33 -37 -15 -9
-45 -32 -65 -51 -31 -28 -38 -31 -44 -18 -11 25 -21 -31 -23 -119 l-1 -76 73
-31 c39 -17 82 -34 95 -37 l22 -7 0 323 c0 178 3 347 6 376 5 36 3 52 -5 52
-7 0 -11 -25 -12 -72z"/>
<path d="M2331 2518 c1 -13 5 -36 9 -53 7 -26 8 -22 9 23 0 29 -3 52 -9 52 -5
0 -9 -10 -9 -22z"/>
<path d="M1730 2399 c0 -17 4 -28 10 -24 6 3 10 17 10 31 0 13 -4 24 -10 24
-5 0 -10 -14 -10 -31z"/>
<path d="M2342 2015 c-2 -397 -2 -401 63 -527 25 -49 31 -70 22 -75 -7 -4 -34
-20 -62 -36 -119 -66 -146 -70 -155 -22 -5 25 -7 21 -12 -25 -3 -33 -2 -58 4
-61 6 -4 8 -21 4 -40 -20 -95 -19 -108 3 -106 22 1 36 22 40 59 2 23 30 -28
49 -93 24 -79 44 -246 42 -359 -2 -140 4 -173 9 -55 l6 110 14 -75 c7 -41 20
-80 29 -86 19 -14 8 -34 -19 -34 -15 0 -19 -7 -20 -37 0 -31 -2 -34 -9 -18 -5
11 -9 18 -10 15 -7 -24 -12 -69 -14 -149 -2 -66 -7 -96 -17 -102 -12 -8 -11
-12 4 -23 15 -11 17 -32 18 -147 0 -98 3 -126 10 -104 5 17 9 76 8 132 -1 56
2 106 6 112 3 6 17 11 31 11 13 0 24 5 24 10 0 6 5 10 11 10 33 0 68 84 62
143 -3 25 -2 54 2 64 4 10 7 129 5 266 -2 230 -3 253 -26 325 -13 42 -27 101
-30 130 l-7 52 32 0 c17 0 43 -7 56 -16 l25 -16 0 503 c-1 491 -1 503 -19 482
-10 -12 -21 -20 -23 -18 -9 9 -68 -17 -68 -30 0 -17 -50 -57 -64 -52 -7 2 -13
51 -16 123 -4 69 -7 -31 -8 -241z m35 -962 c-3 -10 -5 -2 -5 17 0 19 2 27 5
18 2 -10 2 -26 0 -35z m8 -600 c-3 -50 -5 -52 -16 -25 -6 15 -5 30 1 43 15 27
18 24 15 -18z"/>
<path d="M1680 2335 c-7 -8 -18 -15 -25 -15 -18 0 -86 -56 -113 -94 -39 -56
-7 -100 68 -94 14 1 46 1 73 0 53 -2 61 -18 27 -52 -11 -11 -20 -26 -20 -33 0
-8 -17 -22 -38 -31 -39 -18 -39 -18 -34 -68 3 -36 1 -53 -9 -60 -11 -7 -11
-11 -1 -15 6 -2 12 -13 12 -24 0 -18 29 -26 65 -19 5 1 1 -8 -9 -19 -19 -21
-19 -21 10 -21 40 0 114 -30 114 -46 0 -8 10 -14 24 -14 14 0 28 -5 31 -10 10
-16 40 10 95 81 l50 64 -28 6 c-15 4 -33 8 -41 10 -8 2 -17 -6 -20 -20 -10
-37 -28 -36 -29 0 -1 42 -19 60 -36 37 -18 -24 -26 -13 -19 28 5 28 3 34 -13
35 -12 0 -14 3 -6 6 10 4 8 12 -10 32 -21 24 -21 24 -1 7 12 -10 26 -15 31
-12 5 3 16 -2 23 -11 10 -11 10 -14 2 -9 -9 5 -11 2 -7 -9 5 -11 10 -13 19 -5
10 8 16 7 24 -7 9 -16 10 -16 11 5 0 12 -5 22 -10 22 -6 0 -3 11 6 25 14 22
16 42 11 120 -7 110 -21 142 -74 177 -70 46 -131 59 -153 33z m60 -405 c0 -31
-31 -42 -52 -18 -22 26 -15 38 23 38 22 0 29 -5 29 -20z"/>
<path d="M707 2116 c-21 -8 -56 -26 -78 -41 -44 -29 -48 -54 -12 -70 12 -5 24
-16 26 -25 4 -19 -33 -71 -46 -63 -5 3 -6 -3 -3 -15 4 -11 2 -23 -4 -27 -7 -4
-9 -18 -6 -32 4 -13 3 -29 0 -35 -4 -6 -8 -54 -8 -106 -1 -76 2 -95 14 -99 8
-3 24 -9 35 -13 11 -5 39 -10 62 -12 36 -3 43 0 52 19 13 28 31 30 31 3 0 -33
18 -23 23 13 3 22 4 15 5 -20 1 -31 -2 -53 -8 -53 -6 0 -8 -11 -4 -25 3 -13 7
-62 9 -107 4 -132 3 -127 25 -121 18 5 19 13 16 157 -2 83 -1 168 2 189 5 47
26 44 30 -4 2 -24 9 -38 25 -44 31 -14 46 -66 47 -165 1 -87 18 -89 19 -3 1
45 26 152 39 165 25 25 78 -33 70 -77 -5 -28 37 -29 50 -2 10 20 11 20 11 3 1
-11 -10 -38 -23 -60 -32 -56 -43 -106 -22 -106 10 0 16 9 16 25 0 15 7 39 15
55 14 28 16 28 45 14 22 -11 30 -23 30 -41 0 -25 -1 -26 -20 -8 -10 9 -26 15
-35 12 -24 -10 -18 -25 10 -22 33 4 48 -17 42 -59 -4 -26 -1 -33 9 -29 18 7
18 -1 -1 -38 -14 -26 -20 -29 -48 -24 -18 3 -99 15 -182 25 -82 11 -162 22
-176 25 -23 6 -33 -4 -112 -110 -99 -132 -101 -118 31 -150 64 -15 75 -16 90
-3 23 20 50 29 57 18 3 -4 -13 -22 -35 -38 -32 -23 -37 -31 -25 -36 9 -3 25
-1 35 4 42 23 41 1 -1 -23 l-31 -17 31 -31 c32 -30 33 -30 58 -14 26 17 26 17
20 -6 -14 -52 -29 -372 -23 -504 11 -263 19 -365 27 -365 5 0 12 12 15 28 4
15 18 48 31 73 30 58 31 115 4 239 -37 175 -56 500 -32 562 13 34 23 40 79 42
26 1 57 9 70 17 18 11 24 11 31 1 4 -7 16 -10 27 -6 14 4 15 3 5 -4 -16 -12
-24 -134 -9 -143 6 -4 28 1 49 10 30 12 39 20 35 35 -4 17 -3 16 18 -3 22 -20
56 -29 56 -13 0 4 9 18 21 32 l20 25 -1 -75 c-1 -176 6 -396 14 -413 4 -9 5
-28 2 -42 -4 -15 3 -44 19 -81 14 -31 25 -73 26 -93 0 -29 2 -32 9 -16 7 18 9
18 15 3 4 -9 -1 -28 -10 -42 -14 -21 -15 -29 -5 -41 20 -24 67 -19 76 7 4 13
2 24 -5 26 -6 2 -11 10 -11 18 0 9 -4 13 -9 9 -5 -3 -12 -1 -16 4 -7 12 26 6
55 -9 30 -16 86 -4 105 23 8 12 15 41 15 66 0 39 -5 49 -40 82 -22 22 -51 41
-64 45 -20 5 -23 12 -22 44 0 25 -6 46 -18 59 -17 18 -18 31 -13 103 3 46 13
108 22 138 14 50 21 103 41 333 7 77 8 79 46 104 44 30 47 36 13 27 -14 -3
-25 -2 -25 4 0 5 9 12 20 15 25 6 16 37 -10 37 -11 0 -21 4 -24 9 -3 4 -31 11
-63 14 -32 4 -70 10 -85 13 -26 6 -28 4 -28 -24 0 -24 -5 -31 -26 -36 -17 -5
-24 -12 -20 -21 7 -20 -8 -19 -24 0 -7 9 -15 13 -17 11 -3 -3 -16 -1 -29 4
-37 15 -40 -8 -5 -44 17 -18 31 -36 31 -41 0 -6 -11 4 -25 20 -14 17 -22 22
-19 13 3 -10 2 -18 -4 -18 -6 0 -15 14 -21 31 -13 39 -14 52 -2 45 5 -3 15 9
24 27 16 36 15 171 -2 191 -17 20 -1 56 24 56 13 0 26 7 29 16 13 34 4 124
-19 189 -6 17 -5 17 5 5 9 -12 10 -10 4 10 -4 14 -7 31 -7 38 0 6 -5 12 -10
12 -5 0 -6 7 -3 16 8 20 -28 159 -58 227 -35 80 -75 114 -142 123 -52 6 -59 4
-101 -25 -25 -18 -46 -31 -47 -29 -30 66 -99 86 -189 54z m141 -139 c-24 -30
-45 -52 -47 -51 -6 5 70 104 80 104 5 0 -10 -24 -33 -53z m208 -82 c4 -8 10
-12 15 -9 5 3 9 2 9 -3 0 -4 15 -15 33 -23 l32 -14 -40 -8 c-52 -11 -58 -19
-59 -75 -1 -40 -5 -50 -24 -58 -26 -12 -29 -25 -4 -26 10 0 12 -2 4 -6 -7 -3
-24 3 -39 12 -23 15 -24 19 -10 27 19 10 23 38 6 38 -18 0 -48 -43 -49 -69 0
-19 3 -21 15 -11 18 15 33 6 46 -28 13 -33 -6 -45 -41 -27 -39 20 -79 84 -86
138 -6 44 -4 51 22 78 26 28 67 51 119 70 32 11 45 10 51 -6z m-273 -10 c-3
-9 -8 -14 -10 -11 -3 3 -2 9 2 15 9 16 15 13 8 -4z m-153 -46 c-11 -20 -13
-20 -28 -4 -13 13 -14 18 -4 22 7 3 18 11 25 18 17 19 22 -7 7 -36z m251 14
c-8 -15 -10 -15 -11 -2 0 17 10 32 18 25 2 -3 -1 -13 -7 -23z m-241 -92 c0 -6
-4 -13 -10 -16 -5 -3 -10 1 -10 9 0 9 5 16 10 16 6 0 10 -4 10 -9z m497 -13
c-3 -8 -6 -5 -6 6 -1 11 2 17 5 13 3 -3 4 -12 1 -19z m-22 -17 c-3 -6 -11 -8
-17 -5 -6 4 -5 9 3 15 16 10 23 4 14 -10z m-405 -46 c0 -8 -4 -15 -10 -15 -5
0 -7 7 -4 15 4 8 8 15 10 15 2 0 4 -7 4 -15z m492 -80 c9 -20 9 -20 -6 -1 -9
11 -16 27 -15 35 0 14 1 14 6 1 3 -8 10 -24 15 -35z m-552 15 c-14 -4 -34 -8
-45 -8 -16 0 -15 2 5 8 14 4 34 8 45 8 16 0 15 -2 -5 -8z m599 -47 c1 -7 -6
-13 -15 -13 -12 0 -15 6 -10 23 3 12 6 29 7 37 1 15 16 -24 18 -47z m-564 27
c-3 -5 -12 -10 -18 -10 -7 0 -6 4 3 10 19 12 23 12 15 0z m485 -454 c0 -18
-17 8 -24 34 l-7 25 15 -25 c9 -14 15 -29 16 -34z m324 48 c9 -3 13 -10 10
-15 -8 -14 -21 -11 -28 6 -6 17 -4 18 18 9z m46 -13 c0 -5 -7 -11 -14 -14 -10
-4 -13 -1 -9 9 6 15 23 19 23 5z m-330 -83 c0 -4 -7 -5 -16 -1 -14 5 -15 3 -4
-18 7 -13 19 -29 26 -37 16 -15 8 -42 -12 -42 -17 0 -19 -71 -3 -103 8 -14 8
-19 1 -12 -6 6 -18 26 -26 45 -13 32 -12 39 4 73 17 35 18 67 1 67 -4 0 -14
15 -23 33 l-16 34 34 -16 c19 -8 34 -19 34 -23z m25 12 c3 -5 1 -10 -4 -10 -6
0 -11 5 -11 10 0 6 2 10 4 10 3 0 8 -4 11 -10z m155 -80 c0 -38 -7 -61 -26
-90 -28 -42 -42 -54 -24 -21 14 27 13 84 -2 100 -11 11 -9 12 8 7 15 -4 24 -2
28 9 3 8 1 15 -4 15 -6 0 -10 7 -10 15 0 8 7 15 15 15 11 0 15 -12 15 -50z
m185 -760 c11 -20 14 -42 9 -65 -6 -34 -8 -35 -50 -35 -23 0 -46 5 -49 10 -12
19 -8 119 5 135 11 13 15 13 41 0 16 -9 36 -29 44 -45z m-155 -50 c0 -5 -4
-10 -10 -10 -5 0 -10 5 -10 10 0 6 5 10 10 10 6 0 10 -4 10 -10z"/>
<path d="M943 1838 c31 -11 37 -33 7 -25 -24 6 -26 -8 -4 -30 12 -12 20 -13
40 -5 13 7 24 18 24 27 0 8 6 15 13 15 6 1 1 7 -13 15 -14 8 -41 14 -60 14
l-35 -1 28 -10z"/>
<path d="M1530 2026 c0 -3 11 -16 24 -30 24 -27 51 -35 44 -14 -5 13 -68 54
-68 44z"/>
<path d="M1571 1844 c0 -11 3 -14 6 -6 3 7 2 16 -1 19 -3 4 -6 -2 -5 -13z"/>
<path d="M1767 1660 c21 -33 39 -56 41 -50 3 9 -65 110 -74 110 -2 0 13 -27
33 -60z"/>
<path d="M1241 1394 c0 -11 3 -14 6 -6 3 7 2 16 -1 19 -3 4 -6 -2 -5 -13z"/>
<path d="M1390 1330 c0 -5 5 -10 11 -10 5 0 7 5 4 10 -3 6 -8 10 -11 10 -2 0
-4 -4 -4 -10z"/>
<path d="M573 1195 c-6 -27 -10 -52 -8 -54 8 -8 26 53 23 78 -3 20 -6 14 -15
-24z"/>
<path d="M1598 1233 c6 -2 18 -2 25 0 6 3 1 5 -13 5 -14 0 -19 -2 -12 -5z"/>
<path d="M2526 1232 c-3 -5 -1 -46 3 -93 l8 -84 2 93 c1 87 -1 103 -13 84z"/>
<path d="M22 1208 c-21 -21 -14 -45 16 -51 37 -7 88 3 70 14 -8 6 -9 9 -1 9 6
0 9 9 6 20 -6 23 -23 26 -41 8 -9 -9 -12 -9 -12 0 0 7 -6 12 -13 12 -7 0 -18
-5 -25 -12z m58 -39 c0 -5 -4 -9 -10 -9 -5 0 -10 7 -10 16 0 8 5 12 10 9 6 -3
10 -10 10 -16z"/>
<path d="M137 1127 c-16 -20 -16 -22 -2 -25 22 -5 27 2 23 27 -3 20 -3 20 -21
-2z"/>
<path d="M552 1103 c2 -17 9 -28 18 -28 23 0 23 32 0 45 -20 11 -21 9 -18 -17z"/>
<path d="M525 1040 c3 -5 8 -10 11 -10 2 0 4 5 4 10 0 6 -5 10 -11 10 -5 0 -7
-4 -4 -10z"/>
<path d="M65 1030 c-3 -5 -1 -10 4 -10 6 0 11 5 11 10 0 6 -2 10 -4 10 -3 0
-8 -4 -11 -10z"/>
<path d="M2533 950 c0 -47 2 -66 4 -42 2 23 2 61 0 85 -2 23 -4 4 -4 -43z"/>
<path d="M496 1001 c-4 -5 3 -7 14 -4 23 6 26 13 6 13 -8 0 -17 -4 -20 -9z"/>
<path d="M1528 920 c-1 -33 -2 -73 -3 -90 -1 -16 2 -30 7 -30 4 0 8 41 8 90 0
100 -9 124 -12 30z"/>
<path d="M446 942 c-15 -30 -11 -79 10 -99 10 -10 13 -9 18 2 3 8 17 20 31 27
l25 11 -36 25 c-26 17 -34 29 -31 43 7 27 0 23 -17 -9z"/>
<path d="M975 920 c3 -5 8 -10 11 -10 2 0 4 5 4 10 0 6 -5 10 -11 10 -5 0 -7
-4 -4 -10z"/>
<path d="M940 840 c0 -5 5 -10 11 -10 5 0 7 5 4 10 -3 6 -8 10 -11 10 -2 0 -4
-4 -4 -10z"/>
<path d="M1080 820 c0 -5 5 -10 10 -10 6 0 10 5 10 10 0 6 -4 10 -10 10 -5 0
-10 -4 -10 -10z"/>
<path d="M2526 793 c-8 -54 -7 -101 3 -107 4 -3 9 28 10 69 2 82 -3 96 -13 38z"/>
<path d="M1230 808 c0 -11 -12 -21 -32 -27 l-33 -9 43 -1 c43 -1 51 9 32 39
-8 13 -10 13 -10 -2z"/>
<path d="M487 690 c4 -57 2 -80 -9 -90 -18 -20 -42 -95 -34 -108 4 -6 13 -9
21 -5 9 3 15 -1 15 -11 0 -9 4 -16 9 -16 4 0 12 33 15 73 4 39 14 103 22 140
18 88 19 84 -15 89 l-29 4 5 -76z"/>
<path d="M135 561 l-40 -6 63 -18 c66 -19 92 -13 92 19 0 15 -40 17 -115 5z"/>
<path d="M290 563 c-41 -15 -50 -35 -50 -109 0 -56 5 -81 20 -106 11 -18 22
-52 26 -75 4 -29 11 -43 22 -43 13 0 13 -2 -1 -18 -10 -10 -17 -27 -17 -37 0
-25 13 -11 45 49 19 37 22 47 10 42 -20 -7 -31 20 -15 39 7 9 13 63 16 140 4
124 4 125 -19 124 -12 0 -29 -3 -37 -6z"/>
<path d="M477 433 c-3 -5 -1 -17 4 -28 7 -17 8 -17 8 8 1 27 -4 34 -12 20z"/>
<path d="M1200 363 c-24 -5 -40 -19 -40 -37 0 -5 9 -1 19 8 11 10 41 21 68 26
39 6 42 8 13 7 -19 0 -46 -2 -60 -4z"/>
<path d="M1307 343 c-14 -16 -16 -28 -8 -67 5 -26 11 -49 14 -53 10 -9 18 41
15 91 -3 47 -4 48 -21 29z"/>
<path d="M435 276 c-4 -25 -10 -46 -14 -46 -8 0 -36 -87 -45 -140 -5 -32 -4
-35 17 -35 19 0 22 4 19 22 -2 13 -8 20 -13 17 -5 -3 -9 0 -9 6 0 7 9 14 20
17 11 3 20 11 20 19 0 9 -6 11 -17 7 -17 -7 -17 -5 -2 17 31 49 33 55 30 78
-1 15 3 22 13 22 20 0 20 19 1 43 -12 17 -14 15 -20 -27z"/>
<path d="M1912 275 c0 -16 2 -22 5 -12 2 9 2 23 0 30 -3 6 -5 -1 -5 -18z"/>
<path d="M1902 220 c0 -14 2 -19 5 -12 2 6 2 18 0 25 -3 6 -5 1 -5 -13z"/>
<path d="M2226 144 c-9 -70 -7 -144 4 -144 6 0 10 38 10 95 0 52 -2 95 -4 95
-2 0 -6 -21 -10 -46z"/>
<path d="M127 66 c-4 -10 -1 -13 9 -9 15 6 19 23 5 23 -5 0 -11 -7 -14 -14z"/>
<path d="M124 24 c3 -9 6 -18 6 -21 0 -2 7 2 15 11 20 19 19 21 -6 23 -15 1
-19 -2 -15 -13z"/>
<path d="M940 21 c-11 -21 -10 -21 167 -20 182 1 200 11 41 23 -45 4 -109 9
-140 12 -50 5 -58 3 -68 -15z"/>
<path d="M618 3 c6 -2 18 -2 25 0 6 3 1 5 -13 5 -14 0 -19 -2 -12 -5z"/>
</g>
</svg>
