<?xml version="1.0" standalone="no"?>
<!DOCTYPE svg PUBLIC "-//W3C//DTD SVG 20010904//EN"
 "http://www.w3.org/TR/2001/REC-SVG-20010904/DTD/svg10.dtd">
<svg version="1.0" xmlns="http://www.w3.org/2000/svg"
 width="325.000000pt" height="325.000000pt" viewBox="0 0 325.000000 325.000000"
 preserveAspectRatio="xMidYMid meet">

<g transform="translate(0.000000,325.000000) scale(0.100000,-0.100000)"
fill="#000000" stroke="none">
<path d="M2883 3243 c9 -2 23 -2 30 0 6 3 -1 5 -18 5 -16 0 -22 -2 -12 -5z"/>
<path d="M2520 3218 c-14 -6 -50 -10 -81 -9 -69 2 -92 -16 -60 -48 25 -25 49
-27 57 -6 12 30 48 16 67 -25 12 -25 26 -40 40 -42 23 -3 67 28 67 47 0 7 15
27 34 46 19 18 32 37 30 41 -7 12 -125 9 -154 -4z"/>
<path d="M1300 3100 c-63 -23 -186 -108 -241 -167 -62 -65 -113 -133 -106
-140 4 -3 -1 -20 -11 -37 -20 -37 -21 -46 -28 -161 -5 -78 -2 -102 21 -185 15
-52 32 -100 37 -107 5 -7 11 -30 13 -51 1 -22 6 -45 10 -52 4 -6 1 -55 -6
-107 -8 -63 -10 -100 -3 -110 7 -11 4 -47 -7 -112 -10 -53 -20 -121 -22 -151
-3 -30 -8 -69 -12 -86 -7 -32 -58 -96 -72 -92 -4 2 -19 -5 -33 -15 -70 -50
-104 -67 -130 -67 -32 0 -40 -14 -14 -24 14 -5 14 -8 0 -28 -9 -12 -15 -38
-15 -58 2 -28 3 -30 6 -9 2 15 12 34 22 43 17 16 17 14 6 -31 -7 -27 -9 -57
-5 -69 6 -15 1 -34 -16 -64 -44 -77 -42 -150 5 -165 11 -3 23 -15 26 -26 4
-10 13 -19 20 -19 8 0 31 -11 51 -25 33 -22 114 -36 114 -19 0 3 -14 17 -31
31 -17 15 -28 32 -25 40 4 9 1 11 -5 7 -7 -4 -10 -1 -7 7 3 8 23 16 47 19 l43
5 -31 30 c-17 17 -31 34 -31 39 0 4 13 23 29 41 16 18 38 62 49 96 12 35 28
80 36 100 16 39 163 199 182 199 18 0 30 -256 13 -278 -7 -9 -9 -14 -5 -10 15
13 57 -90 62 -150 3 -37 18 -85 42 -136 l37 -78 12 52 c10 46 9 57 -9 98 -11
26 -31 61 -43 77 -35 47 -46 98 -29 131 11 21 13 39 5 73 -10 52 -6 153 8 209
14 51 16 158 3 210 -10 44 0 56 26 30 9 -9 12 -9 12 0 0 7 -8 16 -17 19 -10 4
-31 17 -46 30 -16 13 -34 23 -41 23 -22 0 -96 71 -117 111 -41 80 -62 220 -64
419 -2 180 -1 186 23 230 60 106 131 178 199 199 67 22 148 19 175 -5 13 -11
44 -33 69 -47 26 -15 49 -33 53 -42 3 -8 11 -15 18 -15 7 0 24 -16 38 -35 15
-20 43 -42 69 -52 63 -24 116 -79 150 -155 17 -37 38 -71 46 -76 14 -7 21 -23
24 -54 1 -4 11 -17 24 -29 12 -12 16 -19 10 -15 -9 5 -13 0 -13 -13 0 -11 -4
-23 -10 -26 -5 -3 -10 -14 -10 -23 1 -16 2 -16 14 0 7 10 16 15 19 11 4 -3 13
-1 21 6 29 24 24 -16 -8 -70 -24 -40 -38 -54 -56 -54 -20 0 -25 -9 -40 -60 -9
-33 -23 -73 -32 -90 -9 -16 -19 -46 -23 -65 -4 -19 -12 -40 -17 -47 -5 -6 -8
-17 -7 -25 3 -28 -2 -47 -17 -62 -8 -9 -13 -20 -9 -25 3 -5 -3 -25 -13 -43
-26 -45 -34 -125 -15 -143 24 -25 24 -55 -1 -89 -29 -38 -59 -96 -53 -102 8
-8 86 123 113 191 15 39 31 72 34 75 4 3 9 21 13 41 7 48 35 112 45 105 5 -3
14 -24 21 -48 7 -24 24 -68 37 -98 34 -81 43 -168 35 -322 -1 -17 -22 -51 -61
-95 -33 -37 -60 -71 -60 -75 0 -13 28 -9 34 5 3 6 3 1 -1 -13 -3 -14 -13 -30
-22 -37 -9 -7 -11 -12 -6 -13 16 0 75 39 102 68 20 22 23 23 18 7 -4 -11 -9
-36 -11 -55 l-4 -35 11 33 c6 22 15 32 24 28 7 -2 16 0 18 7 2 7 7 9 11 5 4
-3 -2 -25 -13 -49 -24 -49 -26 -64 -8 -52 6 4 26 8 43 8 36 0 89 37 109 75 7
14 32 46 55 72 23 26 39 52 36 57 -3 5 1 11 9 15 8 3 15 13 15 23 0 14 -2 15
-9 4 -5 -8 -11 -9 -15 -3 -3 5 1 13 9 16 11 4 14 13 9 31 -8 31 4 81 16 69 4
-5 10 -18 13 -29 2 -11 3 -6 1 12 -2 23 1 30 11 27 18 -7 8 32 -18 68 -12 15
-16 32 -12 40 5 7 5 10 0 6 -4 -4 -22 11 -39 35 -17 23 -33 44 -37 47 -3 3
-12 16 -18 28 -7 13 -15 21 -18 18 -8 -8 -56 31 -70 57 -12 21 -12 21 -13 -8
l-1 -30 -10 25 c-10 24 -11 24 -25 6 -27 -38 -16 39 20 132 57 149 70 275 36
342 -11 22 -20 46 -20 54 0 9 -12 23 -27 31 -24 14 -25 16 -5 12 15 -4 20 -1
15 6 -4 7 -8 23 -9 37 -1 39 -33 82 -83 115 -34 22 -45 36 -43 51 2 14 -12 34
-44 63 -26 23 -44 44 -42 47 3 3 12 -1 19 -8 19 -19 118 -88 125 -88 13 0 -39
55 -81 84 -25 18 -43 36 -40 39 3 4 2 5 -1 2 -4 -2 -18 5 -33 16 -18 14 -26
31 -27 56 -2 32 -1 34 15 19 10 -9 23 -16 29 -16 7 0 12 -5 12 -12 0 -6 3 -9
6 -6 3 4 -2 17 -10 30 -9 14 -13 28 -9 33 5 4 2 5 -5 1 -7 -4 -24 5 -42 23
-30 30 -38 51 -20 51 9 0 14 -15 11 -33 -1 -5 3 -6 9 -2 6 3 22 -3 36 -14 15
-12 34 -21 43 -21 10 0 22 -5 28 -11 6 -6 16 -8 23 -4 8 5 6 13 -8 29 -34 38
-36 47 -8 36 37 -14 32 4 -9 36 -27 20 -34 32 -31 51 3 15 -1 26 -10 30 -8 3
-14 10 -14 15 0 21 -87 90 -155 123 -83 42 -157 47 -197 15 -21 -16 -28 -17
-44 -6 -32 22 -77 24 -124 6z m464 -356 c5 -14 4 -15 -9 -4 -17 14 -19 20 -6
20 5 0 12 -7 15 -16z m-4 -29 c7 -9 8 -15 2 -15 -5 0 -12 7 -16 15 -3 8 -4 15
-2 15 2 0 9 -7 16 -15z m121 -182 c13 -16 12 -17 -3 -4 -10 7 -18 15 -18 17 0
8 8 3 21 -13z m37 -130 c9 -9 17 -25 17 -36 0 -10 11 -24 24 -31 26 -14 14
-30 -14 -20 -23 9 -65 74 -58 90 7 18 11 18 31 -3z m152 -304 c0 -38 -6 -81
-15 -100 -15 -34 -15 -33 -14 46 0 44 3 95 6 113 9 53 23 17 23 -59z m-160 16
c26 -32 -19 -80 -48 -51 -13 13 -13 18 2 40 19 30 29 32 46 11z m326 -586 c3
-6 3 -13 0 -16 -7 -8 -44 25 -58 51 -9 17 -7 17 21 -3 17 -12 33 -27 37 -32z
m-116 -109 c-6 -11 -13 -20 -16 -20 -2 0 0 9 6 20 6 11 13 20 16 20 2 0 0 -9
-6 -20z m-197 -212 c-10 -13 -26 -24 -36 -24 -15 -2 -16 1 -5 14 22 29 53 51
56 41 2 -5 -5 -19 -15 -31z"/>
<path d="M3208 3007 c-33 -13 -35 -26 -8 -60 11 -14 20 -30 20 -35 0 -5 7 -15
15 -22 13 -11 15 -3 15 59 0 39 -3 71 -7 70 -5 -1 -20 -6 -35 -12z"/>
<path d="M3033 2993 c-22 -8 -14 -33 37 -118 28 -46 50 -86 50 -89 0 -4 18
-36 40 -72 22 -36 50 -87 62 -112 l22 -47 4 47 c3 40 -2 56 -32 102 -19 31
-47 77 -61 103 -14 26 -35 64 -47 83 -11 19 -21 48 -22 64 -1 29 -27 48 -53
39z"/>
<path d="M2550 2981 c0 -6 5 -13 10 -16 6 -3 10 1 10 9 0 9 -4 16 -10 16 -5 0
-10 -4 -10 -9z"/>
<path d="M2836 2974 c-22 -21 -20 -28 9 -44 32 -17 49 -3 39 34 -7 29 -25 33
-48 10z"/>
<path d="M2380 2753 c0 -9 4 -30 9 -47 5 -17 17 -60 26 -96 9 -36 21 -73 26
-82 5 -10 9 -28 9 -42 0 -18 7 -25 31 -30 46 -9 91 -7 149 5 57 12 65 32 28
66 -13 11 -72 70 -132 132 -104 105 -146 133 -146 94z"/>
<path d="M1489 2596 c-71 -27 -99 -46 -99 -67 0 -16 5 -20 19 -16 23 6 18 -18
-5 -27 -21 -8 -17 -63 6 -86 24 -24 49 -28 30 -5 -14 17 0 21 16 5 6 -6 35
-13 65 -16 34 -4 49 -2 41 4 -18 12 35 47 66 43 23 -2 28 12 16 43 -11 28 -67
55 -122 57 -28 2 -52 4 -52 6 0 11 86 43 115 43 25 0 35 4 33 13 -6 17 -86 19
-129 3z m121 -121 c7 -8 8 -15 2 -15 -5 0 -15 7 -22 15 -7 8 -8 15 -2 15 5 0
15 -7 22 -15z m-100 -36 c0 -5 -9 -9 -20 -9 -22 0 -27 16 -7 23 15 5 27 -1 27
-14z"/>
<path d="M1060 2545 c-7 -8 -11 -15 -9 -16 2 0 20 -2 40 -4 20 -1 45 -7 55
-13 16 -9 14 -12 -18 -25 -19 -8 -43 -25 -52 -38 -20 -29 -22 -71 -2 -63 8 3
34 0 57 -7 24 -7 51 -14 59 -14 20 -1 50 17 44 26 -2 4 4 10 15 14 21 6 19 36
-4 55 -7 6 -11 19 -8 29 7 27 -20 48 -77 60 -68 15 -85 14 -100 -4z m80 -125
c0 -11 -7 -20 -15 -20 -18 0 -19 12 -3 28 16 16 18 15 18 -8z"/>
<path d="M1910 2511 c0 -5 12 -17 28 -26 l27 -18 -24 27 c-26 28 -31 31 -31
17z"/>
<path d="M1970 2496 c0 -2 7 -7 16 -10 8 -3 12 -2 9 4 -6 10 -25 14 -25 6z"/>
<path d="M2490 2329 c-14 -6 -37 -8 -52 -5 -29 6 -88 -11 -88 -25 0 -12 53
-59 66 -59 6 0 17 7 24 15 7 8 19 15 26 15 23 0 16 -39 -12 -65 -31 -29 -30
-13 -22 -355 6 -231 8 -255 25 -268 14 -10 51 -12 155 -10 182 4 182 4 128
123 -47 100 -80 239 -62 257 8 8 13 6 17 -8 3 -10 24 -57 47 -104 22 -47 45
-96 51 -110 5 -14 16 -37 23 -52 8 -14 14 -35 14 -47 0 -15 8 -22 34 -27 29
-5 96 2 96 10 0 1 -12 27 -26 57 -58 118 -142 306 -153 342 -16 47 -3 67 44
67 41 0 94 -61 156 -180 24 -47 49 -90 55 -97 6 -6 17 -25 24 -42 7 -17 16
-31 21 -31 5 0 9 -8 9 -18 0 -10 4 -22 9 -27 5 -6 13 -26 18 -45 l9 -35 62 0
62 0 0 121 0 121 -45 79 c-25 43 -48 87 -51 97 -8 24 21 55 54 59 29 3 36 16
22 38 -11 17 -52 19 -226 7 l-122 -9 -34 35 c-28 28 -46 36 -89 42 -72 9 -101
28 -97 63 2 20 13 32 41 45 21 10 35 22 32 27 -8 13 -213 12 -245 -1z m549
-370 c2 30 125 -177 164 -276 17 -42 17 -43 -4 -43 -57 0 -84 36 -154 210 -14
36 -31 75 -37 88 -10 19 -9 25 2 32 11 7 17 4 22 -8 4 -11 7 -12 7 -3z"/>
<path d="M1440 2242 c0 -20 -7 -32 -22 -40 -22 -10 -22 -11 5 -9 35 2 52 29
37 57 -15 27 -20 25 -20 -8z"/>
<path d="M1352 2231 c-10 -6 -7 -10 13 -15 32 -8 46 1 25 14 -18 12 -22 12
-38 1z"/>
<path d="M1257 2224 c-8 -14 8 -37 22 -33 8 3 8 10 -2 23 -8 11 -17 15 -20 10z"/>
<path d="M1264 2094 c-13 -7 -33 -14 -45 -16 -41 -6 -31 -25 15 -32 24 -4 47
-13 49 -20 3 -8 26 -17 52 -20 37 -6 51 -4 65 9 10 9 16 24 13 32 -5 12 4 14
55 11 42 -2 63 1 66 9 7 18 -9 25 -67 29 -115 10 -181 9 -203 -2z"/>
<path d="M1371 1816 c12 -10 79 -16 79 -6 0 5 -19 10 -42 10 -23 0 -39 -2 -37
-4z"/>
<path d="M2510 1470 c0 -5 5 -10 11 -10 5 0 7 5 4 10 -3 6 -8 10 -11 10 -2 0
-4 -4 -4 -10z"/>
<path d="M2542 1449 c2 -30 11 -39 81 -83 43 -27 88 -61 100 -77 11 -16 27
-29 34 -29 15 0 15 1 17 -105 1 -59 7 -90 23 -120 11 -22 26 -52 32 -68 6 -15
21 -31 34 -36 12 -5 29 -16 36 -25 30 -36 34 -17 29 156 -6 170 -6 171 18 195
27 27 66 30 117 8 l35 -14 34 44 c36 49 42 51 78 30 14 -8 28 -14 33 -15 4 0
7 39 7 86 l0 87 -46 -7 c-26 -3 -62 -6 -80 -6 -31 0 -51 -20 -21 -20 6 0 20
-11 29 -25 14 -18 16 -30 9 -48 -8 -21 -15 -24 -43 -21 -109 12 -289 16 -317
6 -36 -13 -61 -7 -61 15 0 9 -5 11 -12 7 -18 -11 10 26 37 48 15 14 39 18 103
18 45 0 82 4 82 9 0 6 -39 10 -87 10 -49 -1 -137 3 -196 7 l-109 7 4 -34z"/>
<path d="M2950 1460 c0 -5 9 -10 20 -10 11 0 20 5 20 10 0 6 -9 10 -20 10 -11
0 -20 -4 -20 -10z"/>
<path d="M2865 843 c12 -61 37 -117 56 -129 17 -10 3 55 -16 76 -8 9 -15 30
-15 46 -1 26 -19 64 -32 64 -3 0 0 -26 7 -57z"/>
<path d="M3065 700 c-3 -5 -1 -10 4 -10 6 0 11 5 11 10 0 6 -2 10 -4 10 -3 0
-8 -4 -11 -10z"/>
<path d="M226 631 c-4 -7 -5 -15 -2 -18 9 -9 19 4 14 18 -4 11 -6 11 -12 0z"/>
<path d="M3070 567 c0 -4 19 -43 42 -85 l43 -77 8 70 c10 96 10 97 -46 99 -26
0 -47 -3 -47 -7z"/>
<path d="M93 523 c-39 -8 -81 -59 -88 -106 -4 -26 2 -103 14 -191 12 -81 21
-165 21 -186 0 -40 0 -40 40 -40 44 0 44 0 30 50 -12 40 -34 267 -32 323 2 55
26 94 67 108 66 24 24 58 -52 42z"/>
<path d="M220 505 c0 -8 7 -15 15 -15 8 0 15 7 15 15 0 8 -7 15 -15 15 -8 0
-15 -7 -15 -15z"/>
<path d="M1120 497 c-23 -17 -14 -39 26 -66 27 -19 67 -62 100 -110 2 -2 15 0
29 3 l26 7 -32 42 c-37 48 -121 137 -129 137 -3 0 -12 -6 -20 -13z"/>
<path d="M2930 356 c0 -15 9 -35 20 -46 16 -16 17 -20 4 -20 -21 0 -9 -40 19
-62 62 -49 79 -60 112 -74 20 -8 56 -33 81 -56 55 -50 57 -37 4 22 -22 25 -45
65 -53 90 -9 33 -22 51 -45 65 -18 11 -58 39 -88 63 -53 43 -54 43 -54 18z
m159 -161 c0 -20 0 -20 -14 -1 -8 11 -15 29 -15 40 0 20 0 20 15 0 8 -10 14
-28 14 -39z"/>
<path d="M1182 206 l-23 -12 35 -27 35 -27 47 17 c50 19 59 36 22 41 -13 2
-27 8 -32 13 -14 13 -57 11 -84 -5z"/>
<path d="M1090 163 c-19 -18 -29 -33 -22 -33 17 0 77 56 66 61 -5 3 -25 -10
-44 -28z"/>
<path d="M1206 114 c-22 -21 -20 -27 4 -14 11 6 20 15 20 20 0 14 -6 12 -24
-6z"/>
<path d="M3010 103 c0 -2 61 -33 65 -33 2 0 5 6 8 14 4 10 -5 15 -34 18 -21 2
-39 3 -39 1z"/>
<path d="M857 77 c6 -31 56 -47 176 -56 83 -6 88 -5 102 16 8 12 15 25 15 28
0 3 -33 5 -72 5 -40 0 -91 5 -113 11 -22 6 -56 13 -76 16 -34 5 -36 3 -32 -20z"/>
<path d="M1263 64 c-32 -13 -60 -50 -49 -62 3 -3 18 8 34 25 15 16 36 35 47
41 28 16 7 13 -32 -4z"/>
<path d="M3095 60 c3 -5 8 -10 11 -10 2 0 4 5 4 10 0 6 -5 10 -11 10 -5 0 -7
-4 -4 -10z"/>
<path d="M3044 15 c11 -8 31 -15 45 -15 25 1 25 1 7 15 -11 8 -31 15 -45 15
-25 -1 -25 -1 -7 -15z"/>
<path d="M3180 15 c0 -8 7 -15 15 -15 8 0 15 4 15 9 0 5 -7 11 -15 15 -9 3
-15 0 -15 -9z"/>
<path d="M1405 10 c-3 -5 3 -10 14 -10 12 0 21 5 21 10 0 6 -6 10 -14 10 -8 0
-18 -4 -21 -10z"/>
</g>
</svg>
